<mxfile host="65bd71144e" scale="4" border="0">
    <diagram id="uVTAh0CDw6oLYpSjlnJ7" name="ページ1">
        <mxGraphModel dx="935" dy="743" grid="1" gridSize="10" guides="1" tooltips="1" connect="1" arrows="1" fold="1" page="1" pageScale="1" pageWidth="1400" pageHeight="850" background="#ffffff" math="0" shadow="0">
            <root>
                <mxCell id="0"/>
                <mxCell id="1" parent="0"/>
                <mxCell id="23" value="" style="rounded=0;whiteSpace=wrap;html=1;container=0;" parent="1" vertex="1">
                    <mxGeometry x="680" y="680" width="40" height="40" as="geometry"/>
                </mxCell>
                <mxCell id="22" value="&lt;font style=&quot;color: rgb(0, 204, 0);&quot;&gt;bD.x*&lt;/font&gt;&lt;div&gt;&lt;font style=&quot;color: rgb(0, 204, 0);&quot;&gt;(bD.y-1)&lt;/font&gt;&lt;/div&gt;" style="rounded=0;whiteSpace=wrap;html=1;container=0;" parent="1" vertex="1">
                    <mxGeometry x="630" y="680" width="50" height="40" as="geometry"/>
                </mxCell>
                <mxCell id="3" value="" style="swimlane;startSize=0;align=left;verticalAlign=top;" parent="1" vertex="1">
                    <mxGeometry x="200" y="400" width="320" height="320" as="geometry"/>
                </mxCell>
                <mxCell id="5" value="" style="swimlane;startSize=0;" parent="3" vertex="1">
                    <mxGeometry x="160" width="160" height="160" as="geometry"/>
                </mxCell>
                <mxCell id="35" value="" style="group" parent="5" vertex="1" connectable="0">
                    <mxGeometry width="160" height="160" as="geometry"/>
                </mxCell>
                <mxCell id="26" value="&lt;font style=&quot;color: rgb(255, 0, 0);&quot;&gt;0&lt;/font&gt;" style="rounded=0;whiteSpace=wrap;html=1;" parent="35" vertex="1">
                    <mxGeometry width="40" height="40" as="geometry"/>
                </mxCell>
                <mxCell id="27" value="&lt;font style=&quot;color: rgb(255, 0, 0);&quot;&gt;1&lt;/font&gt;" style="rounded=0;whiteSpace=wrap;html=1;strokeColor=#000000;" parent="35" vertex="1">
                    <mxGeometry x="40" width="40" height="40" as="geometry"/>
                </mxCell>
                <mxCell id="28" value="&lt;font style=&quot;color: rgb(255, 0, 0);&quot;&gt;bD.x&lt;/font&gt;" style="rounded=0;whiteSpace=wrap;html=1;" parent="35" vertex="1">
                    <mxGeometry y="40" width="40" height="40" as="geometry"/>
                </mxCell>
                <mxCell id="29" value="&lt;font style=&quot;color: rgb(255, 0, 0);&quot;&gt;bD.x-1&lt;/font&gt;" style="rounded=0;whiteSpace=wrap;html=1;" parent="35" vertex="1">
                    <mxGeometry x="120" width="40" height="40" as="geometry"/>
                </mxCell>
                <mxCell id="30" value="&lt;font style=&quot;color: rgb(255, 0, 0);&quot;&gt;bD.x&lt;/font&gt;&lt;div&gt;&lt;font style=&quot;color: rgb(255, 0, 0);&quot;&gt;+1&lt;/font&gt;&lt;/div&gt;" style="rounded=0;whiteSpace=wrap;html=1;" parent="35" vertex="1">
                    <mxGeometry x="40" y="40" width="40" height="40" as="geometry"/>
                </mxCell>
                <mxCell id="31" value="&lt;font style=&quot;color: rgb(255, 0, 0);&quot;&gt;bD.x*(&lt;/font&gt;&lt;span style=&quot;background-color: transparent;&quot;&gt;&lt;font style=&quot;color: rgb(255, 0, 0);&quot;&gt;bD.y-1)&lt;/font&gt;&lt;/span&gt;" style="rounded=0;whiteSpace=wrap;html=1;" parent="35" vertex="1">
                    <mxGeometry x="-10" y="120" width="50" height="40" as="geometry"/>
                </mxCell>
                <mxCell id="32" value="" style="rounded=0;whiteSpace=wrap;html=1;" parent="35" vertex="1">
                    <mxGeometry x="40" y="120" width="40" height="40" as="geometry"/>
                </mxCell>
                <mxCell id="33" value="&lt;font style=&quot;color: rgb(255, 0, 0);&quot;&gt;bD.x*&lt;/font&gt;&lt;div&gt;&lt;font style=&quot;color: rgb(255, 0, 0);&quot;&gt;bD.y-1&lt;/font&gt;&lt;/div&gt;" style="rounded=0;whiteSpace=wrap;html=1;" parent="35" vertex="1">
                    <mxGeometry x="120" y="120" width="40" height="40" as="geometry"/>
                </mxCell>
                <mxCell id="34" value="&lt;font style=&quot;color: rgb(255, 0, 0);&quot;&gt;2*bD.x&lt;/font&gt;&lt;div&gt;&lt;font style=&quot;color: rgb(255, 0, 0);&quot;&gt;-1&lt;/font&gt;&lt;/div&gt;" style="rounded=0;whiteSpace=wrap;html=1;" parent="35" vertex="1">
                    <mxGeometry x="120" y="40" width="40" height="40" as="geometry"/>
                </mxCell>
                <mxCell id="74" value="bId.x, bId.y = 1,0" style="text;html=1;align=center;verticalAlign=middle;resizable=0;points=[];autosize=1;strokeColor=none;fillColor=#CCCCFF;fontFamily=Times New Roman;" parent="35" vertex="1">
                    <mxGeometry x="20" y="90" width="110" height="30" as="geometry"/>
                </mxCell>
                <mxCell id="59" value="" style="endArrow=classic;html=1;" parent="3" edge="1">
                    <mxGeometry width="50" height="50" relative="1" as="geometry">
                        <mxPoint x="60" y="218.33000000000004" as="sourcePoint"/>
                        <mxPoint x="260" y="218.33000000000004" as="targetPoint"/>
                    </mxGeometry>
                </mxCell>
                <mxCell id="60" value="&lt;font style=&quot;font-size: 16px;&quot;&gt;sequential&lt;/font&gt;" style="edgeLabel;html=1;align=center;verticalAlign=middle;resizable=0;points=[];" parent="59" vertex="1" connectable="0">
                    <mxGeometry x="0.2215" y="1" relative="1" as="geometry">
                        <mxPoint as="offset"/>
                    </mxGeometry>
                </mxCell>
                <mxCell id="62" value="" style="endArrow=classic;html=1;" parent="3" edge="1">
                    <mxGeometry width="50" height="50" relative="1" as="geometry">
                        <mxPoint x="100" y="170" as="sourcePoint"/>
                        <mxPoint x="100" y="300" as="targetPoint"/>
                    </mxGeometry>
                </mxCell>
                <mxCell id="63" value="&lt;font style=&quot;font-size: 15px;&quot;&gt;non-sequential&lt;/font&gt;" style="edgeLabel;html=1;align=center;verticalAlign=middle;resizable=0;points=[];" parent="62" vertex="1" connectable="0">
                    <mxGeometry x="0.0561" y="-1" relative="1" as="geometry">
                        <mxPoint as="offset"/>
                    </mxGeometry>
                </mxCell>
                <mxCell id="69" value="&lt;font style=&quot;font-size: 14px;&quot;&gt;input on DRAM&lt;/font&gt;" style="text;html=1;align=center;verticalAlign=middle;resizable=0;points=[];autosize=1;strokeColor=none;fillColor=#E6E6E6;" parent="3" vertex="1">
                    <mxGeometry x="10" y="50" width="120" height="30" as="geometry"/>
                </mxCell>
                <mxCell id="72" value="&lt;font style=&quot;font-size: 15px; color: rgb(255, 0, 0);&quot;&gt;read to SHMEM&lt;/font&gt;" style="text;html=1;align=center;verticalAlign=middle;resizable=0;points=[];autosize=1;strokeColor=none;fillColor=none;fontColor=#FF0000;fontStyle=1" parent="3" vertex="1">
                    <mxGeometry x="190" y="270" width="130" height="30" as="geometry"/>
                </mxCell>
                <mxCell id="15" value="" style="swimlane;startSize=0;container=0;" parent="1" vertex="1">
                    <mxGeometry x="640" y="400" width="320" height="320" as="geometry"/>
                </mxCell>
                <mxCell id="70" value="&lt;font style=&quot;font-size: 15px;&quot;&gt;output on DRAM&lt;/font&gt;" style="text;html=1;align=center;verticalAlign=middle;resizable=0;points=[];autosize=1;strokeColor=none;fillColor=#E6E6E6;" parent="15" vertex="1">
                    <mxGeometry x="30" y="65" width="130" height="30" as="geometry"/>
                </mxCell>
                <mxCell id="73" value="write out from SHMEM" style="text;html=1;align=center;verticalAlign=middle;resizable=0;points=[];autosize=1;strokeColor=none;fillColor=none;fontStyle=1;fontSize=15;fontColor=#00994D;" parent="15" vertex="1">
                    <mxGeometry x="10" y="-5" width="170" height="30" as="geometry"/>
                </mxCell>
                <mxCell id="40" value="j=0" style="text;html=1;align=center;verticalAlign=middle;resizable=0;points=[];autosize=1;strokeColor=none;fillColor=none;" parent="1" vertex="1">
                    <mxGeometry x="200" y="370" width="40" height="30" as="geometry"/>
                </mxCell>
                <mxCell id="41" value="&lt;div&gt;&lt;span style=&quot;background-color: transparent;&quot;&gt;&lt;font style=&quot;font-size: 18px;&quot;&gt;gridDim.x=2&lt;/font&gt;&lt;/span&gt;&lt;/div&gt;&lt;div&gt;&lt;span style=&quot;background-color: transparent;&quot;&gt;&lt;font size=&quot;3&quot; style=&quot;&quot;&gt;gridDim.y=2&lt;/font&gt;&lt;/span&gt;&lt;/div&gt;&lt;div&gt;&lt;font size=&quot;3&quot; style=&quot;&quot;&gt;N = bDim.x*gDim.x&lt;/font&gt;&lt;/div&gt;&lt;div&gt;&lt;font size=&quot;3&quot; style=&quot;&quot;&gt;M = bDim.y*gDim.y&lt;/font&gt;&lt;/div&gt;" style="text;html=1;align=left;verticalAlign=middle;resizable=0;points=[];autosize=1;strokeColor=none;fillColor=#E6E6E6;spacingLeft=6;fontSize=15;" parent="1" vertex="1">
                    <mxGeometry x="240" y="140" width="160" height="90" as="geometry"/>
                </mxCell>
                <mxCell id="42" value="j=bDim.x-1&lt;span style=&quot;font-family: monospace; font-size: 0px; text-align: start;&quot;&gt;%3CmxGraphModel%3E%3Croot%3E%3CmxCell%20id%3D%220%22%2F%3E%3CmxCell%20id%3D%221%22%20parent%3D%220%22%2F%3E%3CmxCell%20id%3D%222%22%20value%3D%22j%3D0%22%20style%3D%22text%3Bhtml%3D1%3Balign%3Dcenter%3BverticalAlign%3Dmiddle%3Bresizable%3D0%3Bpoints%3D%5B%5D%3Bautosize%3D1%3BstrokeColor%3Dnone%3BfillColor%3Dnone%3B%22%20vertex%3D%221%22%20parent%3D%221%22%3E%3CmxGeometry%20x%3D%22200%22%20y%3D%2278%22%20width%3D%2240%22%20height%3D%2230%22%20as%3D%22geometry%22%2F%3E%3C%2FmxCell%3E%3C%2Froot%3E%3C%2FmxGraphModel%3E&lt;/span&gt;" style="text;html=1;align=center;verticalAlign=middle;resizable=0;points=[];autosize=1;strokeColor=none;fillColor=none;" parent="1" vertex="1">
                    <mxGeometry x="280" y="370" width="80" height="30" as="geometry"/>
                </mxCell>
                <mxCell id="43" value="i=0" style="text;html=1;align=center;verticalAlign=middle;resizable=0;points=[];autosize=1;strokeColor=none;fillColor=none;" parent="1" vertex="1">
                    <mxGeometry x="160" y="400" width="40" height="30" as="geometry"/>
                </mxCell>
                <mxCell id="44" value="" style="shape=curlyBracket;whiteSpace=wrap;html=1;rounded=1;labelPosition=left;verticalLabelPosition=middle;align=right;verticalAlign=middle;direction=south;" parent="1" vertex="1">
                    <mxGeometry x="200" y="360" width="160" height="20" as="geometry"/>
                </mxCell>
                <mxCell id="45" value="bId.x = 0" style="text;html=1;align=center;verticalAlign=middle;resizable=0;points=[];autosize=1;strokeColor=none;fillColor=none;" parent="1" vertex="1">
                    <mxGeometry x="245" y="330" width="70" height="30" as="geometry"/>
                </mxCell>
                <mxCell id="46" value="j=bDim.x" style="text;html=1;align=center;verticalAlign=middle;resizable=0;points=[];autosize=1;strokeColor=none;fillColor=none;" parent="1" vertex="1">
                    <mxGeometry x="360" y="370" width="70" height="30" as="geometry"/>
                </mxCell>
                <mxCell id="47" value="j=2*bDim.x-1&lt;span style=&quot;font-family: monospace; font-size: 0px; text-align: start;&quot;&gt;%3CmxGraphModel%3E%3Croot%3E%3CmxCell%20id%3D%220%22%2F%3E%3CmxCell%20id%3D%221%22%20parent%3D%220%22%2F%3E%3CmxCell%20id%3D%222%22%20value%3D%22j%3D0%22%20style%3D%22text%3Bhtml%3D1%3Balign%3Dcenter%3BverticalAlign%3Dmiddle%3Bresizable%3D0%3Bpoints%3D%5B%5D%3Bautosize%3D1%3BstrokeColor%3Dnone%3BfillColor%3Dnone%3B%22%20vertex%3D%221%22%20parent%3D%221%22%3E%3CmxGeometry%20x%3D%22200%22%20y%3D%2278%22%20width%3D%2240%22%20height%3D%2230%22%20as%3D%22geometry%22%2F%3E%3C%2FmxCell%3E%3C%2Froot%3E%3C%2FmxGraphModel%3E&lt;/span&gt;" style="text;html=1;align=center;verticalAlign=middle;resizable=0;points=[];autosize=1;strokeColor=none;fillColor=none;" parent="1" vertex="1">
                    <mxGeometry x="440" y="370" width="90" height="30" as="geometry"/>
                </mxCell>
                <mxCell id="48" value="" style="shape=curlyBracket;whiteSpace=wrap;html=1;rounded=1;labelPosition=left;verticalLabelPosition=middle;align=right;verticalAlign=middle;direction=south;" parent="1" vertex="1">
                    <mxGeometry x="360" y="360" width="160" height="20" as="geometry"/>
                </mxCell>
                <mxCell id="49" value="bId.x = 1" style="text;html=1;align=center;verticalAlign=middle;resizable=0;points=[];autosize=1;strokeColor=none;fillColor=none;" parent="1" vertex="1">
                    <mxGeometry x="405" y="330" width="70" height="30" as="geometry"/>
                </mxCell>
                <mxCell id="50" value="j=bDim.y-1&lt;span style=&quot;font-family: monospace; font-size: 0px; text-align: start;&quot;&gt;%3CmxGraphModel%3E%3Croot%3E%3CmxCell%20id%3D%220%22%2F%3E%3CmxCell%20id%3D%221%22%20parent%3D%220%22%2F%3E%3CmxCell%20id%3D%222%22%20value%3D%22j%3D0%22%20style%3D%22text%3Bhtml%3D1%3Balign%3Dcenter%3BverticalAlign%3Dmiddle%3Bresizable%3D0%3Bpoints%3D%5B%5D%3Bautosize%3D1%3BstrokeColor%3Dnone%3BfillColor%3Dnone%3B%22%20vertex%3D%221%22%20parent%3D%221%22%3E%3CmxGeometry%20x%3D%22200%22%20y%3D%2278%22%20width%3D%2240%22%20height%3D%2230%22%20as%3D%22geometry%22%2F%3E%3C%2FmxCell%3E%3C%2Froot%3E%3C%2FmxGraphModel%3E&lt;/span&gt;" style="text;html=1;align=center;verticalAlign=middle;resizable=0;points=[];autosize=1;strokeColor=none;fillColor=none;" parent="1" vertex="1">
                    <mxGeometry x="130" y="520" width="80" height="30" as="geometry"/>
                </mxCell>
                <mxCell id="51" value="" style="shape=curlyBracket;whiteSpace=wrap;html=1;rounded=1;labelPosition=left;verticalLabelPosition=middle;align=right;verticalAlign=middle;direction=east;" parent="1" vertex="1">
                    <mxGeometry x="120" y="400" width="20" height="160" as="geometry"/>
                </mxCell>
                <mxCell id="52" value="bId.y = 0" style="text;html=1;align=center;verticalAlign=middle;resizable=0;points=[];autosize=1;strokeColor=none;fillColor=none;" parent="1" vertex="1">
                    <mxGeometry x="60" y="465" width="70" height="30" as="geometry"/>
                </mxCell>
                <mxCell id="64" value="" style="group" parent="1" vertex="1" connectable="0">
                    <mxGeometry x="550" y="90" width="320" height="270" as="geometry"/>
                </mxCell>
                <mxCell id="14" value="" style="swimlane;startSize=0;" parent="64" vertex="1">
                    <mxGeometry x="70" y="30" width="240" height="240" as="geometry"/>
                </mxCell>
                <mxCell id="37" value="" style="group" parent="14" vertex="1" connectable="0">
                    <mxGeometry width="240" height="240" as="geometry"/>
                </mxCell>
                <mxCell id="4" value="&lt;font style=&quot;color: rgb(255, 0, 0);&quot;&gt;0&lt;/font&gt;&lt;div&gt;&lt;font style=&quot;color: rgb(0, 204, 0);&quot;&gt;0&lt;/font&gt;&lt;/div&gt;" style="rounded=0;whiteSpace=wrap;html=1;" parent="37" vertex="1">
                    <mxGeometry width="60" height="60" as="geometry"/>
                </mxCell>
                <mxCell id="6" value="&lt;font style=&quot;color: rgb(255, 0, 0);&quot;&gt;bD.x&lt;/font&gt;&lt;div&gt;&lt;font style=&quot;color: rgb(0, 204, 0);&quot;&gt;1&lt;/font&gt;&lt;/div&gt;" style="rounded=0;whiteSpace=wrap;html=1;" parent="37" vertex="1">
                    <mxGeometry x="60" width="60" height="60" as="geometry"/>
                </mxCell>
                <mxCell id="7" value="&lt;font style=&quot;color: rgb(255, 0, 0);&quot;&gt;1&lt;/font&gt;&lt;div&gt;&lt;font style=&quot;color: rgb(0, 204, 0);&quot;&gt;bD.x&lt;/font&gt;&lt;/div&gt;" style="rounded=0;whiteSpace=wrap;html=1;" parent="37" vertex="1">
                    <mxGeometry y="60" width="60" height="60" as="geometry"/>
                </mxCell>
                <mxCell id="8" value="&lt;font style=&quot;color: rgb(0, 204, 0);&quot;&gt;bD.x*(bD.y-1)&lt;/font&gt;" style="rounded=0;whiteSpace=wrap;html=1;" parent="37" vertex="1">
                    <mxGeometry x="180" width="60" height="60" as="geometry"/>
                </mxCell>
                <mxCell id="9" value="&lt;font style=&quot;color: rgb(255, 0, 0);&quot;&gt;bD.x+1&lt;/font&gt;&lt;div&gt;&lt;font style=&quot;color: rgb(0, 204, 0);&quot;&gt;bD.x+1&lt;/font&gt;&lt;/div&gt;" style="rounded=0;whiteSpace=wrap;html=1;" parent="37" vertex="1">
                    <mxGeometry x="60" y="60" width="60" height="60" as="geometry"/>
                </mxCell>
                <mxCell id="10" value="&lt;font style=&quot;color: rgb(255, 0, 0);&quot;&gt;bD.x-1&lt;/font&gt;&lt;div&gt;&lt;span&gt;&lt;font style=&quot;color: rgb(0, 204, 0);&quot;&gt;bD.x*(bD.y-1)&lt;/font&gt;&lt;/span&gt;&lt;/div&gt;" style="rounded=0;whiteSpace=wrap;html=1;" parent="37" vertex="1">
                    <mxGeometry y="180" width="60" height="60" as="geometry"/>
                </mxCell>
                <mxCell id="11" value="&lt;font style=&quot;color: rgb(255, 0, 0);&quot;&gt;2*bD.x-1&lt;/font&gt;" style="rounded=0;whiteSpace=wrap;html=1;" parent="37" vertex="1">
                    <mxGeometry x="60" y="180" width="60" height="60" as="geometry"/>
                </mxCell>
                <mxCell id="12" value="&lt;font style=&quot;color: rgb(255, 0, 0);&quot;&gt;bD.x*&lt;/font&gt;&lt;div&gt;&lt;font style=&quot;color: rgb(255, 0, 0);&quot;&gt;bD.y-1&lt;/font&gt;&lt;/div&gt;" style="rounded=0;whiteSpace=wrap;html=1;" parent="37" vertex="1">
                    <mxGeometry x="180" y="180" width="60" height="60" as="geometry"/>
                </mxCell>
                <mxCell id="13" value="&lt;font style=&quot;color: rgb(0, 204, 0);&quot;&gt;2*bD.x-1&lt;/font&gt;" style="rounded=0;whiteSpace=wrap;html=1;" parent="37" vertex="1">
                    <mxGeometry x="180" y="60" width="60" height="60" as="geometry"/>
                </mxCell>
                <mxCell id="38" value="&lt;font style=&quot;font-size: 16px;&quot;&gt;buf [0][]&lt;/font&gt;" style="text;html=1;align=center;verticalAlign=middle;resizable=0;points=[];autosize=1;strokeColor=none;fillColor=none;" parent="64" vertex="1">
                    <mxGeometry y="30" width="80" height="30" as="geometry"/>
                </mxCell>
                <mxCell id="55" style="edgeStyle=none;html=1;exitX=1;exitY=0.75;exitDx=0;exitDy=0;entryX=0;entryY=0.25;entryDx=0;entryDy=0;strokeColor=#FF0080;" parent="64" source="29" target="10" edge="1">
                    <mxGeometry relative="1" as="geometry"/>
                </mxCell>
                <mxCell id="76" value="&lt;font style=&quot;font-size: 16px;&quot;&gt;buf [BS-1][]&lt;/font&gt;" style="text;html=1;align=center;verticalAlign=middle;resizable=0;points=[];autosize=1;strokeColor=none;fillColor=none;" parent="64" vertex="1">
                    <mxGeometry x="-20" y="220" width="100" height="30" as="geometry"/>
                </mxCell>
                <mxCell id="16" value="" style="swimlane;startSize=0;container=0;" parent="1" vertex="1">
                    <mxGeometry x="640" y="560" width="160" height="160" as="geometry"/>
                </mxCell>
                <mxCell id="75" value="bId.x, bId.y = 0,1" style="text;html=1;align=center;verticalAlign=middle;resizable=0;points=[];autosize=1;strokeColor=none;fillColor=#CCCCFF;fontFamily=Times New Roman;" parent="16" vertex="1">
                    <mxGeometry x="20" y="90" width="110" height="30" as="geometry"/>
                </mxCell>
                <mxCell id="65" value="" style="endArrow=classic;html=1;" parent="1" edge="1">
                    <mxGeometry width="50" height="50" relative="1" as="geometry">
                        <mxPoint x="720" y="440" as="sourcePoint"/>
                        <mxPoint x="920" y="440" as="targetPoint"/>
                    </mxGeometry>
                </mxCell>
                <mxCell id="66" value="&lt;font style=&quot;font-size: 16px;&quot;&gt;sequential&lt;/font&gt;" style="edgeLabel;html=1;align=center;verticalAlign=middle;resizable=0;points=[];container=0;" parent="65" vertex="1" connectable="0">
                    <mxGeometry x="0.2215" y="1" relative="1" as="geometry">
                        <mxPoint as="offset"/>
                    </mxGeometry>
                </mxCell>
                <mxCell id="67" value="" style="endArrow=classic;html=1;" parent="1" edge="1">
                    <mxGeometry width="50" height="50" relative="1" as="geometry">
                        <mxPoint x="890" y="420" as="sourcePoint"/>
                        <mxPoint x="890" y="550" as="targetPoint"/>
                    </mxGeometry>
                </mxCell>
                <mxCell id="68" value="&lt;font style=&quot;font-size: 15px;&quot;&gt;non-sequential&lt;/font&gt;" style="edgeLabel;html=1;align=center;verticalAlign=middle;resizable=0;points=[];container=0;" parent="67" vertex="1" connectable="0">
                    <mxGeometry x="0.0561" y="-1" relative="1" as="geometry">
                        <mxPoint as="offset"/>
                    </mxGeometry>
                </mxCell>
                <mxCell id="17" value="&lt;font style=&quot;color: rgb(0, 204, 0);&quot;&gt;0&lt;/font&gt;" style="rounded=0;whiteSpace=wrap;html=1;container=0;" parent="1" vertex="1">
                    <mxGeometry x="640" y="560" width="40" height="40" as="geometry"/>
                </mxCell>
                <mxCell id="18" value="&lt;font style=&quot;color: rgb(0, 204, 0);&quot;&gt;1&lt;/font&gt;" style="rounded=0;whiteSpace=wrap;html=1;container=0;" parent="1" vertex="1">
                    <mxGeometry x="680" y="560" width="40" height="40" as="geometry"/>
                </mxCell>
                <mxCell id="19" value="&lt;font style=&quot;color: rgb(0, 204, 0);&quot;&gt;bD.x&lt;/font&gt;" style="rounded=0;whiteSpace=wrap;html=1;container=0;" parent="1" vertex="1">
                    <mxGeometry x="640" y="600" width="40" height="40" as="geometry"/>
                </mxCell>
                <mxCell id="20" value="&lt;font style=&quot;color: rgb(0, 204, 0);&quot;&gt;bD.x-1&lt;/font&gt;" style="rounded=0;whiteSpace=wrap;html=1;container=0;" parent="1" vertex="1">
                    <mxGeometry x="760" y="560" width="40" height="40" as="geometry"/>
                </mxCell>
                <mxCell id="21" value="&lt;font style=&quot;color: rgb(0, 204, 0);&quot;&gt;bD.x+1&lt;/font&gt;" style="rounded=0;whiteSpace=wrap;html=1;container=0;" parent="1" vertex="1">
                    <mxGeometry x="680" y="600" width="40" height="40" as="geometry"/>
                </mxCell>
                <mxCell id="24" value="&lt;font style=&quot;color: rgb(0, 204, 0);&quot;&gt;bD.x*&lt;/font&gt;&lt;div&gt;&lt;font style=&quot;color: rgb(0, 204, 0);&quot;&gt;bD.y-1&lt;/font&gt;&lt;/div&gt;" style="rounded=0;whiteSpace=wrap;html=1;container=0;" parent="1" vertex="1">
                    <mxGeometry x="760" y="680" width="40" height="40" as="geometry"/>
                </mxCell>
                <mxCell id="25" value="&lt;font style=&quot;color: rgb(0, 204, 0);&quot;&gt;2*bD.x&lt;/font&gt;&lt;div&gt;&lt;font style=&quot;color: rgb(0, 204, 0);&quot;&gt;-1&lt;/font&gt;&lt;/div&gt;" style="rounded=0;whiteSpace=wrap;html=1;container=0;" parent="1" vertex="1">
                    <mxGeometry x="760" y="600" width="40" height="40" as="geometry"/>
                </mxCell>
                <mxCell id="57" style="edgeStyle=none;html=1;exitX=1;exitY=0.75;exitDx=0;exitDy=0;entryX=0;entryY=0.5;entryDx=0;entryDy=0;strokeColor=#00CC66;" parent="1" source="6" target="18" edge="1">
                    <mxGeometry relative="1" as="geometry"/>
                </mxCell>
                <mxCell id="58" style="edgeStyle=none;html=1;exitX=1;exitY=0.75;exitDx=0;exitDy=0;entryX=0;entryY=0.75;entryDx=0;entryDy=0;strokeColor=#00CC66;" parent="1" source="8" target="20" edge="1">
                    <mxGeometry relative="1" as="geometry"/>
                </mxCell>
                <mxCell id="56" style="edgeStyle=none;html=1;exitX=1;exitY=0.75;exitDx=0;exitDy=0;entryX=0;entryY=0.75;entryDx=0;entryDy=0;strokeColor=#00CC66;" parent="1" source="4" target="17" edge="1">
                    <mxGeometry relative="1" as="geometry"/>
                </mxCell>
                <mxCell id="53" style="edgeStyle=none;html=1;exitX=1;exitY=0.75;exitDx=0;exitDy=0;entryX=0;entryY=0.75;entryDx=0;entryDy=0;strokeColor=#FF0080;" parent="1" source="26" target="4" edge="1">
                    <mxGeometry relative="1" as="geometry"/>
                </mxCell>
                <mxCell id="54" style="edgeStyle=none;html=1;exitX=1;exitY=0.75;exitDx=0;exitDy=0;entryX=0;entryY=0.5;entryDx=0;entryDy=0;strokeColor=#FF0080;" parent="1" source="27" target="7" edge="1">
                    <mxGeometry relative="1" as="geometry"/>
                </mxCell>
                <mxCell id="71" value="&lt;font style=&quot;font-size: 14px;&quot;&gt;buffer on shared memory&lt;/font&gt;" style="text;html=1;align=center;verticalAlign=middle;resizable=0;points=[];autosize=1;strokeColor=none;fillColor=#E6E6E6;" parent="1" vertex="1">
                    <mxGeometry x="490" y="618" width="180" height="30" as="geometry"/>
                </mxCell>
                <mxCell id="39" value="&lt;font style=&quot;font-size: 16px;&quot;&gt;buf [][0]&lt;/font&gt;" style="text;html=1;align=center;verticalAlign=middle;resizable=0;points=[];autosize=1;strokeColor=none;fillColor=none;" parent="1" vertex="1">
                    <mxGeometry x="610" y="360" width="80" height="30" as="geometry"/>
                </mxCell>
                <mxCell id="77" value="&lt;font style=&quot;font-size: 16px;&quot;&gt;buf [][BS-1]&lt;/font&gt;" style="text;html=1;align=center;verticalAlign=middle;resizable=0;points=[];autosize=1;strokeColor=none;fillColor=none;" parent="1" vertex="1">
                    <mxGeometry x="770" y="360" width="100" height="30" as="geometry"/>
                </mxCell>
            </root>
        </mxGraphModel>
    </diagram>
</mxfile>